<svg width="41" height="29" viewBox="0 0 41 29" fill="none" xmlns="http://www.w3.org/2000/svg">
<path d="M40.0514 0.82577C39.7803 0.564112 39.4577 0.356427 39.1023 0.214698C38.7469 0.0729686 38.3656 0 37.9806 0C37.5956 0 37.2143 0.0729686 36.8589 0.214698C36.5035 0.356427 36.1809 0.564112 35.9098 0.82577L14.1806 21.6516L5.05144 12.8858C4.76992 12.6255 4.43759 12.4208 4.07343 12.2834C3.70927 12.1461 3.32041 12.0787 2.92905 12.0852C2.53769 12.0917 2.15149 12.1719 1.79251 12.3212C1.43354 12.4706 1.1088 12.6861 0.836857 12.9556C0.564911 13.225 0.351079 13.5431 0.207567 13.8917C0.0640556 14.2402 -0.00632493 14.6124 0.000446012 14.987C0.00721695 15.3616 0.0910064 15.7312 0.247029 16.0748C0.403052 16.4184 0.628252 16.7292 0.909774 16.9895L12.1098 27.7095C12.3809 27.9712 12.7035 28.1789 13.0589 28.3206C13.4143 28.4623 13.7956 28.5353 14.1806 28.5353C14.5656 28.5353 14.9469 28.4623 15.3023 28.3206C15.6577 28.1789 15.9803 27.9712 16.2514 27.7095L40.0514 4.92952C40.3475 4.6681 40.5838 4.35083 40.7454 3.99768C40.907 3.64454 40.9904 3.26318 40.9904 2.87765C40.9904 2.49211 40.907 2.11076 40.7454 1.75761C40.5838 1.40447 40.3475 1.08719 40.0514 0.82577V0.82577Z" fill="#2B2B2B"/>
</svg>
