<svg width="50" height="50" viewBox="0 0 50 50" fill="none" xmlns="http://www.w3.org/2000/svg">
<circle cx="25" cy="25" r="25" fill="white"/>
<path d="M22.8987 23.2864C23.3666 22.5511 23.634 21.6152 23.634 20.6793C23.5671 18.0723 21.428 16 18.821 16H11.6016C11.2674 16 11 16.2674 11 16.6016V32.5113C11 32.8456 11.2674 33.113 11.6016 33.113H19.69C22.6981 33.113 25.1714 30.7065 25.1714 27.6983C25.1714 25.8934 24.2356 24.2891 22.8987 23.2864ZM14.1418 19.1418H18.8879C19.7569 19.1418 20.4253 19.8103 20.4253 20.6793C20.4253 21.5483 19.7569 22.2168 18.8879 22.2168H14.1418V19.1418ZM19.7569 29.9711H14.1418V25.4924H19.7569C21.027 25.4924 22.0297 26.4951 22.0297 27.7652C22.0297 28.9684 20.9601 29.9711 19.7569 29.9711Z" fill="#252525"/>
<path d="M39.0752 26.6291C39.0752 22.9525 36.134 19.9443 32.5911 19.9443C28.9814 19.9443 26.1071 22.9525 26.1071 26.6291C26.1071 30.3057 29.0483 33.3138 32.5911 33.3138C34.7971 33.3138 36.8024 32.1774 38.0057 30.3057C38.1394 30.1051 38.2731 29.8378 38.4067 29.5704C38.4736 29.3698 38.3399 29.1693 38.1394 29.1693H34.9307C34.8639 29.1693 34.7971 29.1693 34.7302 29.2361C34.1286 29.8378 33.3933 30.1051 32.5243 30.1051C30.92 30.1051 29.5831 28.9019 29.2488 27.3644H38.4067C38.741 27.3644 39.0752 27.097 39.0752 26.6959V26.6291V26.6291ZM32.5911 23.0862C33.7275 23.0862 34.7971 23.7546 35.3987 24.6905H29.8504C30.3852 23.6878 31.3879 23.0862 32.5911 23.0862Z" fill="#252525"/>
<path d="M35.2653 19.0748H29.5165C29.2491 19.0748 29.0486 18.8743 29.0486 18.6069V17.1363C29.0486 16.8689 29.2491 16.6683 29.5165 16.6683H35.2653C35.5327 16.6683 35.7332 16.8689 35.7332 17.1363V18.6069C35.7332 18.8743 35.5327 19.0748 35.2653 19.0748Z" fill="#252525"/>
</svg>
