<svg width="35" height="35" viewBox="0 0 35 35" fill="none" xmlns="http://www.w3.org/2000/svg">
<path d="M19.4335 17.5L34.5995 2.334C35.1334 1.80005 35.1334 0.934349 34.5995 0.400464C34.0655 -0.13342 33.1998 -0.133488 32.6659 0.400464L17.4999 15.5665L2.334 0.400464C1.80005 -0.133488 0.934349 -0.133488 0.400464 0.400464C-0.13342 0.934417 -0.133488 1.80012 0.400464 2.334L15.5664 17.4999L0.400464 32.6659C-0.133488 33.1999 -0.133488 34.0656 0.400464 34.5995C0.667407 34.8664 1.01734 34.9999 1.36727 34.9999C1.7172 34.9999 2.06706 34.8664 2.33407 34.5995L17.4999 19.4335L32.6659 34.5995C32.9328 34.8664 33.2827 34.9999 33.6327 34.9999C33.9826 34.9999 34.3325 34.8664 34.5995 34.5995C35.1334 34.0655 35.1334 33.1998 34.5995 32.6659L19.4335 17.5Z" fill="white"/>
</svg>
