<svg width="12" height="10" viewBox="0 0 12 10" fill="none" xmlns="http://www.w3.org/2000/svg">
<path d="M11.602 3.97446C11.5753 3.97446 11.5435 3.96258 11.5092 3.99953L11.6007 4.0378V4.16977L11.691 4.30173L11.5562 4.32021L11.5969 4.3664L11.56 4.40599V4.48912L11.6529 4.55115L11.6045 4.59734L11.644 4.63693L11.6058 4.66992L11.6478 4.71743V4.87974H11.7597C11.7787 4.90613 11.822 4.91669 11.8245 4.96552L11.78 5.01567V5.30599L11.8614 5.43796L11.8029 5.49338L11.752 5.45379H11.6567L11.6376 5.34954C11.6287 5.34954 11.6211 5.34954 11.6185 5.34954C11.5842 5.37461 11.6109 5.40893 11.6007 5.43928L11.5588 5.47887V5.55409L11.6007 5.59367V5.67022L11.5651 5.70057L11.6236 5.8035C11.6757 5.75995 11.6236 5.7032 11.6618 5.65438L11.7698 5.64514L11.7889 5.53957L11.9161 5.59235V5.63195L11.7393 5.70848C11.7795 5.72623 11.8239 5.73039 11.8665 5.72036C11.8741 5.74543 11.8665 5.77447 11.9097 5.74808C11.8958 5.73802 11.8814 5.72876 11.8665 5.72036C11.8665 5.72036 11.8665 5.70981 11.8665 5.70717L11.9936 5.65042L12 5.72828C11.9924 5.76523 11.9555 5.77843 11.9326 5.80086C11.9097 5.8233 11.8868 5.84177 11.8614 5.8642L11.9542 5.89192L11.9479 5.94866L11.8372 5.95922C11.822 5.98561 11.7749 5.99221 11.7838 6.02916C11.7546 6.03576 11.7203 6.02916 11.7508 6.06611C11.7609 6.05556 11.7711 6.04499 11.7838 6.02916C11.7838 6.03576 11.8118 6.0384 11.8131 6.045C11.8186 6.0755 11.822 6.10637 11.8233 6.13737L11.7508 6.14925C11.7508 6.15849 11.7342 6.16904 11.733 6.1796C11.733 6.31157 11.733 6.45541 11.733 6.59133C11.6897 6.60717 11.6923 6.58474 11.6885 6.5689C11.6846 6.55306 11.6999 6.51875 11.6745 6.49632C11.6376 6.49632 11.6236 6.53063 11.5982 6.55042V6.66127L11.5575 6.70218L11.6427 6.77477L11.4672 6.8513V6.89221L11.5321 6.945L11.5766 6.91201L11.6033 6.94104C11.5847 6.9854 11.5593 7.02639 11.5282 7.06245C11.4935 7.09338 11.4669 7.13286 11.4507 7.17726H11.3044C11.2917 7.23136 11.2917 7.23136 11.3299 7.27623L11.2905 7.30922V7.4623C11.2523 7.4953 11.2129 7.4755 11.1735 7.48342L11.1468 7.54016L11.2205 7.59955C11.2574 7.56128 11.2892 7.54148 11.335 7.57579C11.3074 7.59745 11.281 7.62081 11.2561 7.64573C11.2437 7.66572 11.2343 7.68752 11.2281 7.7104H11.1786L11.0234 7.84237V7.89515L10.8963 7.91627L10.8886 7.99676C10.8759 8.03239 10.8251 8.05219 10.7945 8.0865C10.764 8.12081 10.717 8.13665 10.7093 8.18944C10.7093 8.21979 10.6534 8.24486 10.6229 8.27257L10.5186 8.36363C10.4347 8.36363 10.4143 8.43357 10.3584 8.45996C10.3067 8.47396 10.2597 8.50223 10.2223 8.54178C10.188 8.59853 10.1053 8.58665 10.0659 8.63547C10.0265 8.6843 9.95147 8.67771 9.91205 8.72917C9.87568 8.77188 9.8327 8.80801 9.78489 8.83606C9.72828 8.86055 9.67589 8.89442 9.62976 8.93636H9.52549L9.46572 9.0129C9.39186 9.00222 9.31686 9.02109 9.25591 9.06568C9.21254 9.09714 9.16555 9.12285 9.11603 9.14223C9.05144 9.16216 8.99308 9.19949 8.94691 9.25043C8.91258 9.28474 8.85408 9.27815 8.81975 9.3151C8.80958 9.32698 8.76508 9.3151 8.7371 9.3151L8.64936 9.39032H8.47134L8.36834 9.48006L8.28823 9.43123C8.25262 9.49193 8.16997 9.50117 8.10894 9.53944L8.07842 9.51173L7.92328 9.58167H7.79612L7.77069 9.64501C7.75868 9.65137 7.74582 9.65581 7.73254 9.65821C7.7033 9.65821 7.67405 9.65821 7.6448 9.65821C7.6448 9.64765 7.63717 9.6305 7.62954 9.62786C7.60284 9.62786 7.59903 9.63973 7.6003 9.65821C7.52273 9.65821 7.44389 9.65821 7.36632 9.65821C7.34598 9.65821 7.32945 9.67273 7.33453 9.69516H7.30529L7.20229 9.75058C7.22134 9.7622 7.24268 9.76918 7.26471 9.77101C7.28673 9.77284 7.30886 9.76947 7.32945 9.76114C7.32945 9.74135 7.32945 9.71891 7.32945 9.69516C7.36505 9.68856 7.37141 9.72419 7.39811 9.73079L7.43245 9.70176L7.55071 9.7519C7.5062 9.79413 7.44898 9.7519 7.40066 9.77038L7.35106 9.80865H7.26079L7.18831 9.88255C7.09294 9.89311 6.99756 9.88255 6.90474 9.88915L6.87295 9.91686C6.78648 9.94985 6.73307 9.88387 6.66695 9.86671L6.65042 9.81129C6.58734 9.84594 6.53557 9.8992 6.50164 9.96437L6.4724 9.89179L6.31599 9.96173H6.02607L5.97648 10C5.92434 9.97493 5.91036 9.9261 5.8773 9.87991L5.70182 9.95645L5.66621 9.9261H5.44877L5.3979 9.88651H5.31144L5.26439 9.92346H5.14613L4.98209 9.84956H4.76593L4.75066 9.78621C4.72014 9.75718 4.71252 9.80073 4.68963 9.80733C4.60697 9.80733 4.60697 9.80733 4.43531 9.73211L4.37173 9.76774C4.30179 9.72683 4.30179 9.72683 4.16319 9.76774C4.12504 9.72947 4.11995 9.66349 4.04493 9.65293L4.08562 9.59091L4.0373 9.57507C3.99915 9.59619 3.96355 9.61466 3.95592 9.65293H3.89361L3.81986 9.60542L3.70033 9.69516L3.64438 9.67536V9.62918L3.55282 9.60146L3.45491 9.49193L3.40786 9.53284L3.2896 9.48269V9.44311L3.1777 9.39296L3.09887 9.43123L3.00731 9.35205H2.88016C2.83819 9.32434 2.80132 9.2953 2.753 9.27287C2.70468 9.25044 2.67924 9.24252 2.59659 9.20952L2.50122 9.10659L2.41475 9.1475C2.36514 9.12187 2.31371 9.10025 2.26089 9.08284C2.23588 9.07772 2.21293 9.06492 2.19501 9.04609C2.1771 9.02726 2.16505 9.00329 2.16043 8.97727L2.07906 8.95219L2.12356 8.90864C2.08418 8.86748 2.03867 8.83317 1.98877 8.80703L1.92011 8.8519L1.8934 8.78328C1.86254 8.78359 1.83263 8.77225 1.80924 8.75137C1.78584 8.73049 1.77056 8.7015 1.76624 8.66979C1.71156 8.64207 1.65434 8.66979 1.59584 8.64471C1.51896 8.60452 1.44756 8.55394 1.38349 8.49427C1.37713 8.4626 1.38349 8.42169 1.36315 8.40454C1.3428 8.38738 1.34153 8.34647 1.32118 8.32404L1.25379 8.30952C1.25379 8.25674 1.20547 8.22638 1.15842 8.18679V8.09838L1.07195 8.04955H1.04143L1.02109 7.9928L0.939707 7.9585V7.92023C0.833523 7.84433 0.742787 7.74747 0.672676 7.63518V7.55864L0.545517 7.47022C0.525172 7.41348 0.57349 7.4016 0.582391 7.37653C0.582391 7.31846 0.504821 7.30659 0.499734 7.26964C0.494648 7.23269 0.446332 7.19705 0.409456 7.15614V6.98459L0.305185 6.9252L0.370037 6.81568L0.272122 6.77477V6.73517L0.31536 6.69559L0.269577 6.65336V6.53987C0.211083 6.51347 0.233978 6.46333 0.21999 6.41714L0.155138 6.40526L0.134788 6.36171L0.228885 6.26802C0.221255 6.20995 0.16149 6.19544 0.133515 6.14925L0.172934 6.08063L0.138607 6.04236V5.92095L0.067398 5.90907C0.067398 5.90907 0.0559491 5.90907 0.0546775 5.89851V5.66362L0.0928314 5.62667V5.55144L0.0495939 5.51186V5.43664L0.0928314 5.39705V5.21889L0 5.06449L0.0457754 5.01699L0.00762923 4.9774L0.0495939 4.93781V4.88238C0.113173 4.87183 0.133519 4.8164 0.176753 4.78868C0.15005 4.74514 0.0979143 4.78077 0.0495939 4.75834L0.0368811 4.71478L0.0839293 4.67124V4.57622C0.120805 4.5683 0.124616 4.60789 0.158949 4.61053L0.176753 4.56302L0.129705 4.51948L0.171669 4.47989C0.127164 4.45349 0.0623126 4.44953 0.0445103 4.39675V4.36112C0.0763001 4.33472 0.115713 4.35452 0.148774 4.34792L0.203459 4.39015C0.21236 4.34924 0.203455 4.30437 0.23143 4.28326C0.259405 4.26214 0.249235 4.21068 0.289926 4.18692C0.330617 4.16317 0.289927 4.12754 0.306458 4.09851L0.345877 4.06024L0.307723 4.02065L0.345877 3.98766V3.8293L0.437427 3.76991V3.6815L0.480665 3.64191C0.488295 3.59968 0.480665 3.54293 0.480665 3.48882L0.523895 3.44792C0.521329 3.42821 0.521329 3.40824 0.523895 3.38853C0.531524 3.3529 0.569678 3.33179 0.577307 3.2922C0.584937 3.25261 0.625624 3.24733 0.653599 3.22226V3.11273C0.682729 3.08818 0.704007 3.05506 0.714633 3.01771L0.774402 3.00451C0.806192 2.9636 0.7744 2.91874 0.796017 2.87255C0.825264 2.85539 0.837977 2.80656 0.89647 2.82108C0.942247 2.73398 1.01727 2.66008 1.02363 2.55715L1.13299 2.54659C1.16605 2.507 1.14189 2.46082 1.14952 2.41463C1.18397 2.37673 1.22806 2.34974 1.27668 2.33677L1.17495 2.24175C1.13934 2.24175 1.10756 2.24175 1.10629 2.27475C1.10501 2.30774 1.05288 2.33149 1.03253 2.36316C1.00934 2.39835 0.989741 2.43594 0.974043 2.47533C0.960055 2.50832 0.914274 2.52944 0.921903 2.57167C0.87497 2.60499 0.837268 2.65049 0.812548 2.70363C0.792208 2.75457 0.764788 2.80214 0.731165 2.84484C0.696832 2.88047 0.720994 2.91874 0.70192 2.95041C0.682847 2.98208 0.637067 3.01903 0.628166 3.0573C0.619265 3.09557 0.582391 3.118 0.574761 3.15231C0.571994 3.17686 0.571994 3.20166 0.574761 3.22621L0.439973 3.31991V3.48487C0.406912 3.5007 0.398012 3.54029 0.353506 3.53897V3.40701L0.394198 3.37138V3.28956C0.46795 3.26185 0.40437 3.17739 0.473036 3.14572C0.476534 3.09735 0.494288 3.05128 0.523895 3.01375C0.557955 2.96351 0.588146 2.91056 0.61418 2.85539V2.79865C0.641181 2.77721 0.667071 2.7543 0.691746 2.73002C0.704338 2.71005 0.714987 2.68884 0.723535 2.66668C0.760411 2.60334 0.799831 2.53472 0.835436 2.47665C0.87104 2.41859 0.868497 2.41859 0.962595 2.38692V2.29586L1.04143 2.27211L1.05288 2.18897L1.12282 2.12034L1.222 2.20612H1.25633C1.28431 2.17313 1.26523 2.13354 1.26396 2.09923C1.29321 2.09923 1.32754 2.09923 1.29702 2.06228C1.28685 2.07284 1.27668 2.08339 1.26396 2.09923H1.2042C1.2042 2.06756 1.23599 1.98706 1.25506 1.98574C1.33008 1.97914 1.35424 1.91976 1.40511 1.88545V1.81155L1.44326 1.77855L1.45215 1.6941L1.53354 1.62416V1.5199C1.55704 1.48519 1.59106 1.45964 1.63018 1.44732C1.69249 1.42885 1.68995 1.42225 1.72937 1.33911L1.83109 1.32987C1.86543 1.30216 1.83109 1.26785 1.85779 1.23222L1.92519 1.21242C1.94808 1.18471 1.93282 1.15172 1.93536 1.12137C1.93665 1.09719 1.93665 1.07296 1.93536 1.04879C1.98728 1.005 2.0475 0.973075 2.11211 0.955091C2.11211 1.01712 2.20494 0.972247 2.21384 1.02107L2.24563 1.01184L2.238 0.957729C2.1935 0.957729 2.15281 0.957729 2.11085 0.957729C2.11085 0.933975 2.11085 0.911542 2.11085 0.87987C2.13917 0.882926 2.16772 0.882926 2.19604 0.87987C2.20367 0.903624 2.19604 0.933975 2.23927 0.907582C2.22579 0.896869 2.21131 0.887587 2.19604 0.87987C2.21003 0.829723 2.27615 0.812567 2.30794 0.771658H2.39568L2.444 0.73207H2.6004C2.6004 0.76902 2.63855 0.787496 2.67289 0.803332C2.69832 0.776939 2.70086 0.751864 2.66271 0.73207H2.6004C2.60931 0.700398 2.56353 0.696439 2.56226 0.674004L2.67034 0.58031C2.71357 0.594826 2.72883 0.555234 2.75935 0.544677C2.79496 0.592184 2.84582 0.581627 2.89541 0.573709C2.9094 0.526202 2.9094 0.526204 2.86998 0.481336C2.9005 0.423271 2.98443 0.433826 3.02512 0.387638H3.22857L3.35573 0.332215V0.253034L3.43329 0.19629H3.60877L3.64056 0.119748L3.69143 0.15934H3.87199L3.94448 0.0696047L3.98135 0.156698H4.06146C4.1314 0.139543 4.1314 0.0814787 4.16319 0.0418891H4.29035L4.33994 0.00230104L4.36918 0.0300126C4.41818 0.0429543 4.46911 0.0460904 4.51924 0.0392512C4.54467 0.0168171 4.56629 -0.0122168 4.61461 0.0088977L4.64131 0.0722425C4.68708 0.0643246 4.69853 0.022097 4.73795 0.00758079C4.81424 -0.0188123 4.86511 0.0300115 4.92996 0.0577243C4.97519 0.069518 5.01818 0.0891488 5.05712 0.115789C5.05712 0.115789 5.08382 0.115789 5.10035 0.115789L5.13087 0.0471688H5.23133L5.31016 0.144822L5.34323 0.0616871C5.37374 0.035294 5.41316 0.0616848 5.43732 0.0511276L5.60645 0.12767L5.67511 0.0920365C5.70563 0.121069 5.68274 0.155381 5.69546 0.192332L5.81499 0.209488L5.83406 0.3111L5.92053 0.251714L5.82897 0.102596C5.85119 0.0862149 5.87849 0.0790262 5.90554 0.0824436C5.93259 0.085861 5.95743 0.099636 5.9752 0.121069C6.05404 0.132946 6.13415 0.121071 6.21299 0.131629L6.23079 0.193652L6.34905 0.209488L6.32108 0.3111L6.42662 0.319017L6.508 0.388959H6.63516L6.68984 0.428551H6.77249L6.82336 0.468139H6.92381L6.97213 0.50641C7.01664 0.522246 7.03317 0.482655 7.06368 0.472098C7.09039 0.513007 7.13617 0.505087 7.1794 0.507727C7.20229 0.507727 7.2201 0.520926 7.22137 0.54336C7.19339 0.54336 7.15906 0.54336 7.18831 0.58031C7.19848 0.569753 7.20865 0.559196 7.22137 0.54336H7.41211C7.4617 0.586909 7.53926 0.590867 7.5825 0.658169C7.61683 0.658169 7.65116 0.658169 7.68677 0.658169C7.72237 0.658169 7.75925 0.671364 7.79231 0.639692L7.7033 0.604063V0.520924L7.7567 0.50641C7.77959 0.499812 7.79612 0.491893 7.79104 0.468139C7.82493 0.477781 7.85601 0.495954 7.88152 0.521045C7.90703 0.546136 7.92617 0.577371 7.93727 0.611981C7.97287 0.600104 8.00848 0.589547 8.04154 0.57503C8.05044 0.57503 8.05298 0.555237 8.05807 0.54336H8.12928L8.15853 0.61726H8.26026C8.28187 0.641014 8.31875 0.655531 8.32511 0.688523C8.33147 0.721514 8.2895 0.72679 8.28442 0.751864L8.3925 0.845558L8.43446 0.767699C8.47261 0.795411 8.44972 0.829723 8.45735 0.858755C8.437 0.890427 8.37979 0.903625 8.42048 0.955091H8.29332L8.23609 1.00788L8.30349 1.06858H8.43701L8.48914 1.10817L8.50694 1.05407L8.4599 1.01051V0.932655L8.52601 0.87987L8.5718 0.914182H8.65826L8.70658 0.875911C8.7282 0.899665 8.76126 0.923419 8.76762 0.949812C8.77398 0.976205 8.80958 0.998638 8.82993 1.02371C8.89859 1.01711 8.89605 1.07122 8.92148 1.10157C8.93571 1.11692 8.95148 1.13063 8.96853 1.14248L9.01558 1.10685C9.04013 1.13099 9.06649 1.15305 9.09442 1.17283C9.11832 1.18411 9.14354 1.19209 9.16944 1.19659V1.2441L9.25082 1.26785L9.26481 1.32591L9.38434 1.34307L9.39578 1.43544C9.4263 1.46316 9.46572 1.44336 9.50006 1.44996L9.59543 1.52782H9.68444C9.70097 1.55553 9.74802 1.56345 9.7531 1.6004C9.72385 1.607 9.68952 1.6004 9.72004 1.63735C9.73021 1.62679 9.74039 1.61624 9.7531 1.6004C9.77257 1.60187 9.79213 1.60187 9.8116 1.6004C9.83256 1.64589 9.86347 1.68566 9.90188 1.71653C9.97736 1.76843 10.0447 1.83208 10.1015 1.90524C10.0723 1.91184 10.0329 1.88677 10.0163 1.92768C10.0748 1.94483 10.0748 1.94483 10.1015 1.90524C10.1791 1.93163 10.2172 1.99762 10.2643 2.02797C10.3139 2.14146 10.4296 2.18633 10.4995 2.27211V2.35524L10.6267 2.44762C10.6267 2.47665 10.6267 2.48853 10.6267 2.50041C10.6763 2.52944 10.7538 2.5268 10.7538 2.60334C10.8314 2.65876 10.8492 2.75378 10.9331 2.79997V2.88575L10.9954 2.9029C11.0908 3.01111 11.1124 3.16683 11.2421 3.26185V3.34234L11.3273 3.36742C11.3273 3.39381 11.3273 3.42416 11.3337 3.4532L11.4189 3.5271V3.65906L11.4901 3.67094C11.5384 3.72372 11.513 3.77123 11.4583 3.8029L11.5232 3.92563C11.5511 3.94675 11.6071 3.92299 11.602 3.97446ZM2.50122 7.66949C2.51139 7.69852 2.50885 7.72888 2.547 7.70248C2.53428 7.69325 2.52284 7.68533 2.51139 7.69061C2.50249 7.66157 2.51139 7.63122 2.46689 7.65762C2.47325 7.66421 2.49104 7.67345 2.50122 7.66817V7.66949ZM1.17114 6.82887C1.18004 6.85922 1.17113 6.88826 1.21564 6.86186C1.2042 6.85395 1.19149 6.8447 1.18131 6.84998C1.17114 6.82095 1.17368 6.79192 1.13553 6.81699C1.14697 6.82491 1.15969 6.83943 1.17114 6.82755V6.82887ZM6.70891 4.82036C6.74325 4.81244 6.77758 4.82036 6.74833 4.78209C6.73816 4.79265 6.72672 4.80188 6.73435 4.81244C6.70001 4.82036 6.66568 4.81244 6.69493 4.85071C6.7051 4.83883 6.71654 4.82828 6.70891 4.81904V4.82036ZM8.18523 0.729432C8.23101 0.706998 8.23101 0.706995 8.21193 0.656848C8.16489 0.670045 8.19413 0.704358 8.18523 0.729432C8.17633 0.754505 8.11784 0.710954 8.10131 0.751864C8.1598 0.769019 8.1598 0.769021 8.18523 0.729432ZM6.98739 5.42608C6.98739 5.45247 7.00138 5.46435 7.03189 5.46435L7.00265 5.50922L6.87549 5.44983C6.8526 5.42344 6.86913 5.39045 6.81954 5.39573V5.56068L6.86023 5.60555C6.82463 5.61875 6.7992 5.62535 6.77377 5.60555V5.53561L6.70891 5.46303C6.65932 5.51714 6.70891 5.57388 6.66186 5.62271C6.64661 5.59631 6.63389 5.57256 6.6199 5.55013C6.61269 5.55136 6.60578 5.55405 6.59956 5.55805V5.64514C6.60719 5.6623 6.65551 5.67022 6.61609 5.69793H6.50546C6.49656 5.67417 6.5258 5.63986 6.47876 5.62534C6.45968 5.67549 6.45968 5.67549 6.50546 5.69793C6.50546 5.72168 6.51945 5.7494 6.4902 5.76919C6.43934 5.79162 6.37448 5.74939 6.32616 5.79822C6.35344 5.80343 6.37994 5.8123 6.405 5.82461C6.4152 5.83471 6.4275 5.84222 6.44096 5.84657C6.45441 5.85092 6.46866 5.85199 6.48257 5.84969L6.52962 5.81274H6.74833L6.79793 5.77315H6.8933C6.9111 5.70717 6.97849 5.75071 7.02045 5.73092L7.14761 5.62271C7.19848 5.63722 7.21627 5.58312 7.26205 5.58312C7.30783 5.58312 7.31673 5.54617 7.34598 5.52901C7.34598 5.46699 7.40829 5.44983 7.4388 5.4076V5.33634L7.48332 5.29279C7.47569 5.26244 7.49857 5.22681 7.46169 5.20306L7.39303 5.25188L7.27986 5.16611C7.24425 5.19646 7.26842 5.22945 7.26079 5.25848L7.21882 5.29807L7.2557 5.33502L7.17813 5.41024L7.11201 5.31919H7.01155L6.99375 5.35482C6.96704 5.35482 6.95306 5.36406 6.95052 5.38385C6.94798 5.40364 6.9467 5.42872 6.98739 5.42608ZM11.6071 5.09352C11.5969 5.06317 11.6007 5.03414 11.5613 5.05922C11.5733 5.06948 11.5871 5.07711 11.602 5.08165C11.6287 5.12124 11.6287 5.12124 11.6872 5.10408C11.6707 5.06317 11.6287 5.08957 11.6071 5.09352ZM2.50631 1.1504H2.59532L2.58896 1.07782C2.54445 1.09893 2.51266 1.11741 2.51902 1.1504C2.48469 1.15832 2.45036 1.1504 2.48087 1.18999C2.49208 1.17891 2.50077 1.16539 2.50631 1.1504ZM11.1531 5.72036C11.1633 5.75071 11.1531 5.77974 11.1989 5.75335C11.1866 5.74467 11.1739 5.73674 11.1608 5.7296L11.1531 5.66229L11.0857 5.65306L11.0209 5.7164L11.0438 5.77843C11.0828 5.76472 11.1196 5.74516 11.1531 5.72036ZM3.73466 7.63782C3.75628 7.65629 3.76773 7.67609 3.78044 7.67741C3.81351 7.67741 3.85038 7.69061 3.87962 7.66157C3.84275 7.62066 3.79188 7.64837 3.75247 7.64178C3.75247 7.58503 3.82876 7.6167 3.84402 7.58239C3.83639 7.55336 3.85928 7.51905 3.83766 7.50058L3.67998 7.63254C3.69804 7.63584 3.71633 7.6376 3.73466 7.63782ZM4.19244 7.79354H4.12631L4.07545 7.75263L4.00933 7.76582L4.0284 7.83181H4.14412L4.2077 7.91099C4.28908 7.8516 4.18099 7.83313 4.19117 7.79354C4.23694 7.77111 4.23694 7.77111 4.21786 7.71964C4.17081 7.73416 4.20134 7.76319 4.19244 7.79354ZM2.77334 8.25146V8.3082C2.79877 8.32404 2.81149 8.35703 2.85472 8.35835V8.30688C2.82166 8.28841 2.81022 8.25146 2.77716 8.24222C2.74703 8.21885 2.71856 8.19327 2.69196 8.16568C2.66525 8.13137 2.61058 8.14721 2.58515 8.11554C2.58515 8.10894 2.56607 8.10893 2.54954 8.10498C2.54954 8.13797 2.54954 8.167 2.54191 8.19735C2.48977 8.25146 2.4885 8.25938 2.52029 8.28709H2.56353L2.60931 8.25014L2.67416 8.29237C2.70647 8.27684 2.73957 8.26318 2.77334 8.25146ZM10.937 5.42608H10.9929C11.026 5.42608 11.0272 5.47623 11.0641 5.45115V5.31919L11.0209 5.28092V5.16611L10.9586 5.11332C10.9459 5.1252 10.937 5.13047 10.937 5.13443C10.935 5.22829 10.9388 5.32218 10.9484 5.41552C10.9141 5.42344 10.8797 5.41552 10.9102 5.45379C10.9204 5.44598 10.9294 5.43665 10.937 5.42608ZM3.0391 0.833681L3.10141 0.877232L3.30486 0.753184V0.709634L3.20186 0.666087L3.0391 0.706996V0.838961H2.9272L2.86362 0.951133C2.94119 0.96169 2.97934 0.899666 3.0391 0.897026V0.833681ZM2.95009 5.04338C2.95009 5.05394 2.95009 5.06845 2.93483 5.07505C2.91957 5.08165 2.89033 5.12124 2.91957 5.15159L2.99206 5.17138C2.97832 5.18878 2.96834 5.20903 2.9628 5.23077C2.92847 5.23869 2.89414 5.23077 2.92466 5.26904C2.93582 5.26005 2.94458 5.24823 2.95009 5.23473C2.97807 5.23473 3.00985 5.22285 3.03529 5.25056V5.37197L2.99714 5.40496C3.01179 5.41644 3.02502 5.42974 3.03656 5.44455C3.048 5.46171 3.02384 5.49338 3.06835 5.49602C3.11031 5.43928 3.0569 5.37197 3.10014 5.31259H3.15863C3.17474 5.35451 3.17828 5.4005 3.1688 5.44455C3.13065 5.46699 3.10522 5.4947 3.14591 5.53033L3.21967 5.54353L3.1777 5.58839C3.1866 5.61479 3.23366 5.62667 3.21967 5.65966L3.47399 5.87872H3.55028L3.72449 6.02916H3.81223L3.86055 6.06875C3.89488 6.06875 3.9343 6.08195 3.96482 6.05423L3.91523 5.98033C3.8809 5.89719 3.77027 5.88796 3.71177 5.82593C3.65478 5.77735 3.58778 5.74304 3.51595 5.72564C3.49433 5.71772 3.47653 5.71113 3.48162 5.68605C3.51213 5.68605 3.5274 5.67417 3.52613 5.64778H3.61768L3.73212 5.76787L3.80079 5.7428C3.78171 5.70717 3.76518 5.67549 3.74611 5.64382C3.73305 5.62418 3.71904 5.60525 3.70414 5.58708C3.70414 5.54617 3.71432 5.49734 3.6927 5.47359C3.67109 5.44983 3.66981 5.40365 3.65455 5.37197C3.63679 5.33537 3.62437 5.29623 3.61768 5.25584C3.61132 5.22417 3.56936 5.19778 3.57698 5.15687C3.58461 5.11596 3.51341 5.10276 3.53376 5.0579C3.50451 5.0381 3.48161 5.01435 3.4867 4.98004C3.44219 4.96156 3.45618 4.91141 3.42312 4.88766C3.39006 4.8639 3.42948 4.78473 3.36209 4.75569C3.35573 4.75569 3.36209 4.73326 3.35573 4.72139V4.64484L3.30868 4.5881L3.3659 4.4878L3.27181 4.44954C3.26545 4.39015 3.19678 4.35056 3.23238 4.26478L3.13828 4.22519C3.13828 4.09323 3.13066 3.97974 3.12557 3.86757C3.12557 3.86757 3.1154 3.85965 3.10649 3.85305L3.04292 3.86625L3.08743 3.91112C3.06581 3.94807 3.01367 3.9639 2.99841 4.01009C2.98315 4.05628 2.94246 4.07871 2.91195 4.11302C2.91195 4.14997 2.90177 4.19088 2.94882 4.212L2.86108 4.36244L2.92593 4.42314L2.81403 4.48121C2.82637 4.48548 2.8376 4.49263 2.84686 4.5021C2.85612 4.51158 2.86317 4.52313 2.86747 4.53587C2.87176 4.5486 2.87319 4.56219 2.87164 4.57559C2.87009 4.58899 2.86562 4.60185 2.85854 4.61317L2.79496 4.63297L2.72756 4.72798C2.72756 4.76889 2.72756 4.82564 2.72756 4.8771C2.7975 4.88898 2.84455 4.90745 2.85472 4.96684C2.85969 4.98904 2.8719 5.00879 2.88928 5.02273C2.90665 5.03668 2.92813 5.04397 2.95009 5.04338ZM7.56469 8.21055H7.63336L7.67532 8.13401H7.72237C7.75035 8.0997 7.75543 8.05219 7.79994 8.02844C7.81145 8.02246 7.82084 8.01286 7.82678 8.00101C7.83272 7.98916 7.8349 7.97567 7.833 7.96245C7.833 7.96245 7.85207 7.96245 7.86097 7.9519L7.89531 7.98093L7.92837 7.95585C7.97415 7.93342 8.01484 7.95586 8.04536 7.9321C8.01102 7.87668 8.01102 7.87668 8.01865 7.80014L8.08223 7.75131H8.1687C8.20812 7.67213 8.20812 7.67213 8.3073 7.61934C8.29713 7.58371 8.245 7.57579 8.23864 7.53488C8.28801 7.53004 8.33362 7.50542 8.3658 7.46626L8.24627 7.41612L8.16616 7.48606H8.07715C8.03518 7.52301 7.99449 7.55864 7.94999 7.59427C7.94109 7.59427 7.92328 7.59427 7.9093 7.59427C7.87496 7.59427 7.86352 7.5428 7.79358 7.56392L7.69185 7.67213H7.59012C7.57396 7.68646 7.55599 7.69844 7.53672 7.70776C7.50874 7.71436 7.47823 7.70776 7.45025 7.71436C7.4341 7.72152 7.41942 7.73182 7.40702 7.74471L7.37269 7.71436C7.32055 7.72888 7.30275 7.79486 7.23408 7.78562C7.20229 7.83049 7.14888 7.82389 7.09802 7.82521C7.06877 7.88591 6.98739 7.84105 6.94797 7.87932C6.90855 7.91759 6.8348 7.87931 6.78648 7.90967L6.71273 7.9453L6.64279 7.88723C6.62499 7.84632 6.65042 7.8107 6.61227 7.78562H6.56395L6.50927 7.84104L6.55378 7.90967L6.48003 7.97565H6.31218C6.30073 7.97565 6.29056 7.98885 6.27911 7.99545C6.27149 8.02448 6.29437 8.05879 6.26258 8.08518L6.17231 7.97037L6.10618 8.02975L6.09473 8.12477L5.96757 8.07066L6.00954 8.03108L5.94596 7.97565H5.85695L5.81372 8.00996L5.74886 7.97037C5.69927 7.99017 5.66621 8.01128 5.65731 8.05087H5.41443C5.39155 8.01524 5.33432 8.02316 5.30889 7.99808C5.25676 7.9453 5.22497 7.99808 5.19318 7.99808L5.05076 7.93606L5.01515 7.96641L4.96811 7.93078H4.88927L4.83967 7.89119H4.76211C4.68963 7.86084 4.63495 7.83709 4.579 7.81597C4.55873 7.81335 4.53823 7.81335 4.51797 7.81597C4.48363 7.83841 4.4671 7.87668 4.41878 7.8846L4.39716 7.76055L4.34757 7.84896L4.28526 7.85952C4.25602 7.91363 4.29417 7.9519 4.31197 7.99149L4.22931 8.01656L4.29289 8.08386L4.38571 8.00468C4.39945 8.01757 4.41436 8.02906 4.43023 8.03899C4.44902 8.04349 4.46818 8.04614 4.48745 8.04691L4.51542 8.11685H4.63495C4.63495 8.12345 4.63495 8.13401 4.63495 8.13533C4.68893 8.16205 4.74458 8.18497 4.80153 8.20395C4.84222 8.25806 4.91852 8.26729 4.97065 8.30424L5.01643 8.29105C5.05585 8.30556 5.0978 8.3346 5.13214 8.328C5.19317 8.31744 5.21352 8.3821 5.27202 8.36891L5.31907 8.33328L5.36611 8.37023H5.49327L5.53651 8.45072L5.58229 8.41246H5.85695L5.89764 8.44677H6.62372C6.63718 8.44544 6.65043 8.44233 6.66314 8.43753L6.69493 8.40982H6.82209L6.91491 8.33592L6.96323 8.37023L6.99629 8.29897H7.09802L7.13617 8.38738L7.24553 8.26201C7.30784 8.25014 7.34853 8.26993 7.37269 8.24222L7.38667 8.18416H7.53799C7.54055 8.19106 7.54447 8.19733 7.54951 8.20256C7.55455 8.20779 7.56059 8.21186 7.56724 8.21451C7.5329 8.22243 7.49857 8.21451 7.52782 8.25278C7.5412 8.24228 7.55208 8.22874 7.55961 8.21319L7.56469 8.21055ZM8.4548 7.61934L8.49677 7.65762L8.43192 7.71304L8.37724 7.67081C8.36961 7.7104 8.37724 7.75659 8.35181 7.7777C8.32637 7.79881 8.33401 7.8516 8.29205 7.8714C8.2717 7.88196 8.2717 7.88987 8.29205 7.90175H8.43446C8.43987 7.87895 8.44964 7.8575 8.46318 7.83869C8.47672 7.81987 8.49377 7.80407 8.5133 7.79222H8.6252V7.66025L8.71167 7.58635L8.7193 7.46758C8.77652 7.41744 8.79687 7.47946 8.83374 7.4821L8.89096 7.43063L8.85281 7.39104L8.88969 7.35013L8.82611 7.29867C8.76381 7.34354 8.72311 7.40688 8.63791 7.42272C8.62779 7.42504 8.61835 7.42984 8.61039 7.43673C8.60242 7.44362 8.59616 7.45239 8.59214 7.4623C8.57688 7.53884 8.49931 7.56788 8.44972 7.62198L8.4548 7.61934ZM10.6941 6.87374L10.7653 6.75761V6.65732C10.8144 6.65051 10.8595 6.6257 10.8924 6.58737V6.53459L10.8378 6.45937C10.7604 6.49825 10.7006 6.56688 10.6712 6.65072L10.7208 6.72594L10.6699 6.7906C10.6776 6.81963 10.6559 6.85394 10.6928 6.87638L10.6941 6.87374ZM5.3712 7.56128H5.58864C5.58864 7.56128 5.60009 7.55336 5.60645 7.5494L5.54795 7.44647L5.5009 7.48474H5.23768C5.23768 7.48474 5.22751 7.49134 5.21861 7.49926C5.2415 7.54808 5.29236 7.50849 5.32415 7.52169L5.3712 7.56128ZM1.97606 8.08914V8.03371C1.94681 8.02184 1.91629 8.01128 1.88832 7.99676C1.86034 7.98225 1.85017 7.94926 1.80566 7.94398C1.80566 7.96245 1.79422 7.98225 1.80566 7.99676C1.8171 8.01128 1.83745 8.02184 1.84635 8.03767C1.85299 8.05402 1.85685 8.07143 1.85779 8.08914H1.97606ZM3.04038 1.0092C3.05893 1.02295 3.08116 1.03035 3.10396 1.03035C3.12676 1.03035 3.14899 1.02295 3.16754 1.0092C3.15991 0.980165 3.18152 0.947172 3.15354 0.920779C3.08742 0.893066 3.07089 0.949813 3.03401 0.972248L3.04038 1.0092ZM11.1201 6.06215C11.1112 6.02652 11.1315 5.99485 11.101 5.96318C11.0438 5.9447 11.0209 5.99353 10.9853 6.01728C11.0171 6.03972 11.0336 6.09382 11.1201 6.06215ZM2.753 1.15172C2.70849 1.1438 2.68178 1.15172 2.68433 1.20582L2.75045 1.24278L2.82166 1.2111L2.753 1.15172ZM3.51595 1.30348C3.44601 1.33383 3.43711 1.39454 3.40278 1.44732L3.46255 1.45656C3.48726 1.42278 3.50936 1.38704 3.52866 1.34967C3.53121 1.33779 3.51722 1.31799 3.51213 1.30348H3.51595ZM4.81806 7.35409L4.92996 7.45043L5.00752 7.37389C4.92741 7.40028 4.90834 7.31318 4.83332 7.34089C4.82314 7.34353 4.81933 7.35013 4.81424 7.35409H4.81806ZM2.2024 8.38474L2.19222 8.33724C2.12101 8.30688 2.10448 8.36363 2.06506 8.38606L2.07651 8.43753L2.2024 8.38474ZM2.41984 1.47504L2.3677 1.42753L2.27869 1.47239L2.32447 1.56873C2.31303 1.47108 2.38296 1.50803 2.41602 1.47504H2.41984ZM1.81584 6.46069L1.88577 6.35776C1.82728 6.30761 1.82728 6.30761 1.80948 6.3142C1.79211 6.36155 1.79302 6.41402 1.81202 6.46069H1.81584ZM3.48034 0.58031L3.49687 0.655531L3.57953 0.642334L3.56681 0.58031H3.48034ZM0.88503 3.99953C0.867228 4.1315 0.867225 4.1315 0.921903 4.17901C0.899015 4.1117 0.926989 4.06816 0.881211 3.99953H0.88503ZM0.693018 4.81112L0.676487 4.7359L0.592566 4.7491L0.606551 4.81112H0.693018ZM4.60824 5.04866C4.60824 5.00379 4.67309 4.96288 4.60824 4.93253L4.56501 4.96948L4.60824 5.04866ZM5.87983 7.556C5.89958 7.56622 5.92135 7.57154 5.94341 7.57154C5.96548 7.57154 5.98725 7.56622 6.00699 7.556L5.99428 7.4887L5.96757 7.51113C5.92434 7.53357 5.8862 7.50981 5.8862 7.55204L5.87983 7.556ZM2.36007 8.45864C2.34975 8.44962 2.33669 8.44467 2.3232 8.44467C2.3097 8.44467 2.29664 8.44962 2.28633 8.45864C2.27997 8.49427 2.26216 8.5299 2.30031 8.56157L2.36007 8.45864ZM3.49052 0.944532C3.47852 0.93051 3.46175 0.921856 3.44373 0.92038C3.42572 0.918904 3.40785 0.92472 3.39388 0.936614L3.40405 0.990721L3.49052 0.944532ZM11.087 5.7969C11.0679 5.89192 11.0692 5.89192 11.101 5.91435C11.1201 5.88136 11.1201 5.84705 11.087 5.7969ZM2.75935 0.836323C2.73138 0.865356 2.69831 0.877231 2.69196 0.908903C2.70402 0.918149 2.71889 0.922571 2.73383 0.921359C2.74878 0.920147 2.76281 0.913384 2.77334 0.902306L2.75935 0.836323ZM1.7281 5.87212C1.70648 5.96186 1.70648 5.96186 1.737 5.99221C1.76116 5.95922 1.75861 5.92491 1.7281 5.87212ZM5.22624 7.42668C5.11943 7.40952 5.11942 7.41084 5.08764 7.43723C5.10987 7.44709 5.13406 7.45128 5.15818 7.44944C5.18229 7.4476 5.20563 7.4398 5.22624 7.42668ZM2.26598 8.37682C2.28632 8.28709 2.28632 8.28709 2.2558 8.25674C2.23164 8.29105 2.23419 8.32404 2.26598 8.37682ZM11.1391 4.17768C11.1608 4.08795 11.1595 4.08795 11.129 4.0576C11.1048 4.09059 11.1073 4.1249 11.1391 4.17768ZM0.770584 4.50232V4.47857C0.750816 4.47506 0.730858 4.47286 0.710823 4.47197C0.710823 4.47197 0.695565 4.48121 0.696837 4.48384C0.698109 4.48648 0.707009 4.5076 0.712095 4.5076C0.731709 4.50772 0.751285 4.50596 0.770584 4.50232ZM11.4914 4.47065C11.4596 4.49704 11.4596 4.52212 11.4914 4.54719C11.5232 4.52212 11.5232 4.49704 11.4914 4.47065ZM0.665047 4.662C0.696837 4.63693 0.696837 4.61185 0.665047 4.58546C0.633257 4.61185 0.633257 4.63693 0.665047 4.662ZM11.1061 5.16347H11.0781C11.0781 5.18062 11.0781 5.19778 11.0705 5.21493C11.0628 5.23209 11.0819 5.22813 11.0845 5.22681C11.087 5.22549 11.1124 5.21889 11.1124 5.21361C11.1121 5.19671 11.11 5.17989 11.1061 5.16347ZM11.2065 5.5211C11.1658 5.49602 11.1379 5.48546 11.1188 5.5211C11.1455 5.54749 11.1697 5.54617 11.2065 5.51977V5.5211ZM10.9586 5.80482C10.9306 5.83913 10.9166 5.86421 10.9586 5.88004C10.9929 5.85761 10.9929 5.83649 10.9586 5.80482ZM8.54254 1.11873V1.14248L8.60104 1.14908C8.60104 1.14908 8.6163 1.13984 8.61503 1.1372C8.61375 1.13457 8.60485 1.11345 8.59977 1.11213C8.58186 1.11329 8.56403 1.11549 8.54636 1.11873H8.54254ZM10.8963 6.8711H10.9255C10.9268 6.85441 10.9268 6.83764 10.9255 6.82095C10.9255 6.82095 10.9153 6.80775 10.9115 6.80907C10.9077 6.81039 10.8835 6.81699 10.8835 6.82227C10.8871 6.8392 10.8926 6.8556 10.9001 6.8711H10.8963ZM0.990574 6.97271C1.03126 6.99647 1.05924 7.00834 1.07831 6.96611C1.05543 6.94632 1.03126 6.94764 0.994385 6.97139L0.990574 6.97271ZM1.32754 7.18518C1.35552 7.15087 1.36823 7.12579 1.32754 7.10996C1.30084 7.13239 1.30211 7.15351 1.32881 7.18518H1.32754ZM8.83883 7.18518H8.81086C8.80962 7.20187 8.80962 7.21863 8.81086 7.23532C8.81086 7.23532 8.82103 7.24852 8.82484 7.2472C8.82866 7.24588 8.85154 7.23928 8.85281 7.234C8.85103 7.21827 8.84763 7.20279 8.84265 7.18782L8.83883 7.18518ZM0.750242 7.25248C0.722267 7.28811 0.708279 7.31187 0.750242 7.3277C0.784575 7.30791 0.783299 7.28679 0.754052 7.25512L0.750242 7.25248ZM6.31472 7.46626C6.35541 7.49002 6.38339 7.50189 6.40246 7.46626C6.37957 7.44251 6.35541 7.44383 6.31853 7.4689L6.31472 7.46626ZM5.78574 7.5428C5.78013 7.53631 5.77327 7.53112 5.7656 7.52757C5.75794 7.52401 5.74963 7.52217 5.74123 7.52217C5.73284 7.52217 5.72453 7.52401 5.71686 7.52757C5.7092 7.53112 5.70233 7.53631 5.69672 7.5428C5.70227 7.54993 5.70924 7.55573 5.71715 7.55979C5.72506 7.56386 5.73373 7.56609 5.74255 7.56634C5.75138 7.56659 5.76015 7.56485 5.76827 7.56125C5.77638 7.55764 5.78364 7.55225 5.78956 7.54544L5.78574 7.5428ZM5.07365 7.89515V7.8714L5.01515 7.8648C5.01515 7.8648 4.9999 7.87403 5.00117 7.87667C5.00244 7.87931 5.01007 7.90043 5.01643 7.90175C5.03562 7.9008 5.05473 7.8986 5.07365 7.89515ZM8.3569 7.97169V7.94794C8.33756 7.94443 8.31802 7.94223 8.2984 7.94134C8.2984 7.94134 8.28314 7.95058 8.28442 7.95322C8.28569 7.95586 8.29332 7.97697 8.29967 7.97697C8.31871 7.97884 8.33787 7.97884 8.3569 7.97697V7.97169ZM1.66324 8.42301C1.65775 8.41655 1.651 8.41138 1.64344 8.40784C1.63587 8.40429 1.62767 8.40246 1.61937 8.40246C1.61107 8.40246 1.60287 8.40429 1.59531 8.40784C1.58775 8.41138 1.58099 8.41655 1.5755 8.42301C1.58099 8.42947 1.58775 8.43464 1.59531 8.43819C1.60287 8.44173 1.61107 8.44356 1.61937 8.44356C1.62767 8.44356 1.63587 8.44173 1.64344 8.43819C1.651 8.43464 1.65775 8.42947 1.66324 8.42301ZM4.05383 9.54208V9.51832L3.99407 9.51173C3.99407 9.51173 3.97881 9.52096 3.98008 9.5236C3.98135 9.52624 3.99025 9.54736 3.99534 9.54868C4.01495 9.54773 4.03448 9.54553 4.05383 9.54208ZM10.4932 2.65744C10.4988 2.66393 10.5056 2.66913 10.5133 2.67268C10.521 2.67623 10.5293 2.67807 10.5377 2.67807C10.5461 2.67807 10.5544 2.67623 10.562 2.67268C10.5697 2.66913 10.5766 2.66393 10.5822 2.65744C10.5766 2.65095 10.5697 2.64576 10.562 2.64221C10.5544 2.63865 10.5461 2.63682 10.5377 2.63682C10.5293 2.63682 10.521 2.63865 10.5133 2.64221C10.5056 2.64576 10.4988 2.65095 10.4932 2.65744ZM3.7868 0.241158L3.77154 0.227961C3.76594 0.235716 3.76124 0.244133 3.75755 0.253034C3.75755 0.253034 3.76646 0.262273 3.77154 0.266232L3.7868 0.241158ZM5.33941 0.596145L5.32415 0.571072C5.32415 0.571072 5.30889 0.58031 5.31016 0.584269C5.31356 0.59332 5.31828 0.601776 5.32415 0.609343L5.33941 0.596145ZM6.16086 0.691161L6.14433 0.705675C6.15428 0.710209 6.16447 0.714174 6.17484 0.717551C6.17484 0.717551 6.18374 0.709634 6.18883 0.705675L6.16086 0.691161ZM2.98188 0.757143L2.99714 0.743946C2.98788 0.738454 2.97808 0.734028 2.9679 0.730749C2.9679 0.730749 2.95772 0.738667 2.95264 0.743946L2.98188 0.757143ZM3.71305 0.862714L3.72958 0.877232C3.7352 0.869017 3.73989 0.86016 3.74356 0.850838C3.74356 0.850838 3.73466 0.84292 3.72958 0.838961L3.71305 0.862714ZM8.03645 0.871953L8.05299 0.857438C8.04312 0.852688 8.03291 0.848714 8.02247 0.845558C8.02247 0.845558 8.01357 0.853479 8.00848 0.857438L8.03645 0.871953ZM3.54265 0.882508L3.52739 0.895705C3.53667 0.900801 3.54649 0.904785 3.55664 0.907582C3.55664 0.907582 3.56682 0.899664 3.5719 0.895705L3.54265 0.882508ZM3.23238 0.947174L3.26036 0.933976C3.26036 0.933976 3.25019 0.9221 3.24637 0.9221C3.23634 0.925256 3.22656 0.929227 3.21712 0.933976L3.23238 0.947174ZM3.29851 1.01579L3.28325 0.992042C3.28325 0.992042 3.26799 1.00128 3.26926 1.00392C3.27294 1.01324 3.27763 1.0221 3.28325 1.03031L3.29851 1.01579ZM3.96482 1.20715L3.94829 1.18207C3.94829 1.18207 3.9343 1.19131 3.9343 1.19527C3.9377 1.20432 3.94242 1.21278 3.94829 1.22034L3.96482 1.20715ZM3.95465 1.2916L3.97118 1.2784C3.9618 1.27253 3.95145 1.2685 3.94066 1.26653C3.94066 1.26653 3.93176 1.27313 3.92667 1.2784L3.95465 1.2916ZM2.2024 1.36023L2.21893 1.37342C2.21893 1.36418 2.23037 1.35627 2.23164 1.34703C2.23291 1.33779 2.22274 1.33911 2.21893 1.33515L2.2024 1.36023ZM2.75045 1.41169C2.75045 1.41169 2.73647 1.42093 2.73647 1.42357C2.74014 1.43289 2.74483 1.44175 2.75045 1.44996C2.75045 1.44996 2.76571 1.44072 2.76444 1.43676C2.76062 1.42957 2.75592 1.42291 2.75045 1.41697V1.41169ZM2.69069 4.49045L2.70595 4.50364C2.71182 4.49607 2.71653 4.48762 2.71993 4.47857C2.71993 4.47857 2.71103 4.47065 2.70595 4.46537L2.69069 4.49045ZM11.3871 4.60525L11.4024 4.61845C11.4082 4.61089 11.4129 4.60243 11.4163 4.59338C11.4163 4.59338 11.4074 4.58546 11.4024 4.58018L11.3871 4.60525ZM0.459042 4.64352L0.443784 4.61845C0.443784 4.61845 0.428527 4.62769 0.429798 4.63165C0.433198 4.6407 0.437914 4.64915 0.443784 4.65672L0.459042 4.64352ZM0.282297 4.7966L0.265766 4.77153C0.265766 4.77153 0.25178 4.78077 0.25178 4.78341C0.255457 4.79273 0.260148 4.80158 0.265766 4.8098L0.282297 4.7966ZM11.2854 4.93781L11.2688 4.92461C11.2634 4.93223 11.2591 4.94069 11.2561 4.94968C11.2561 4.94968 11.265 4.9576 11.2688 4.96288L11.2854 4.93781ZM6.18247 5.74016L6.16721 5.72564C6.1616 5.73385 6.15691 5.74271 6.15323 5.75203C6.15323 5.75203 6.16213 5.75995 6.16721 5.76391L6.18247 5.74016ZM3.99915 6.13605L4.01569 6.12286C4.00573 6.11832 3.99554 6.11436 3.98517 6.11098C3.98517 6.11098 3.97627 6.1189 3.97118 6.12286L3.99915 6.13605ZM6.8933 6.20467L6.87676 6.1796C6.87676 6.1796 6.86278 6.19016 6.86278 6.1928C6.86618 6.20185 6.87089 6.21031 6.87676 6.21787L6.8933 6.20467ZM10.9624 6.71538C10.9624 6.71538 10.9484 6.72462 10.9484 6.72726C10.9518 6.73631 10.9565 6.74476 10.9624 6.75233C10.9624 6.75233 10.9776 6.74309 10.9764 6.74045C10.9711 6.73441 10.9651 6.72908 10.9586 6.72462L10.9624 6.71538ZM0.830352 6.84735L0.846884 6.8711C0.846884 6.8711 0.860869 6.86186 0.860869 6.85922C0.857193 6.8499 0.852502 6.84105 0.846884 6.83283L0.830352 6.84735ZM8.93802 7.15219L8.92148 7.13899C8.91561 7.14655 8.91089 7.15501 8.90749 7.16406C8.90749 7.16406 8.9164 7.1733 8.92148 7.17726L8.93802 7.15219ZM0.942253 7.21025L0.957511 7.19574C0.947987 7.19121 0.938217 7.18724 0.92826 7.18386C0.92826 7.18386 0.918087 7.19178 0.913001 7.19574L0.942253 7.21025ZM2.91576 7.66025L2.93229 7.67345C2.93791 7.66524 2.9426 7.65638 2.94627 7.64706C2.94627 7.64706 2.93737 7.63914 2.93229 7.63518L2.91576 7.66025ZM1.01727 7.75527L1.00201 7.76847C1.0113 7.77356 1.02111 7.77755 1.03126 7.78034C1.03126 7.78034 1.04144 7.77242 1.04652 7.76847L1.01727 7.75527ZM1.78023 7.89647L1.79549 7.88327C1.7862 7.87818 1.77639 7.87419 1.76624 7.8714C1.76624 7.8714 1.75607 7.87932 1.75098 7.88327L1.78023 7.89647ZM2.41602 7.92155C2.41602 7.92155 2.40458 7.90835 2.40076 7.90967C2.39054 7.91224 2.38071 7.91624 2.37152 7.92155C2.37152 7.92155 2.38169 7.93474 2.38551 7.93342L2.41602 7.92155ZM1.18894 8.01128L1.21691 7.99808C1.21691 7.99808 1.20674 7.98489 1.20293 7.98621C1.19271 7.98878 1.18287 7.99278 1.17368 7.99808L1.18894 8.01128ZM2.34863 7.97829C2.34863 7.97829 2.33464 7.98753 2.33464 7.99149C2.33804 8.00054 2.34276 8.00899 2.34863 8.01656C2.34863 8.01656 2.36389 8.00732 2.36262 8.00468C2.35782 7.99707 2.35228 7.99 2.34609 7.98357L2.34863 7.97829ZM5.51489 8.00336L5.49963 7.97829C5.49963 7.97829 5.48437 7.98753 5.48564 7.99149C5.48853 8.00078 5.4933 8.00933 5.49963 8.01656L5.51489 8.00336ZM8.16743 8.04955L8.18269 8.03636C8.1735 8.03105 8.16366 8.02706 8.15344 8.02448C8.15344 8.02448 8.14327 8.0324 8.13945 8.03636L8.16743 8.04955ZM2.05362 8.06935L2.03836 8.05483C2.03275 8.06304 2.02805 8.0719 2.02437 8.08122C2.02437 8.08122 2.03328 8.08914 2.03836 8.0931L2.05362 8.06935ZM3.92413 9.52097C3.92413 9.52097 3.91268 9.50909 3.90887 9.50909C3.89891 9.51247 3.88915 9.51644 3.87962 9.52097C3.87962 9.52097 3.89107 9.53416 3.89361 9.53284C3.90469 9.53346 3.91581 9.53258 3.92667 9.5302L3.92413 9.52097Z" fill="#8FC8F0"/>
</svg>
