<svg width="50" height="50" viewBox="0 0 50 50" fill="none" xmlns="http://www.w3.org/2000/svg">
<circle cx="25" cy="25" r="25" fill="white"/>
<path fill-rule="evenodd" clip-rule="evenodd" d="M23.5333 28.0038C23.5333 28.0688 23.4939 28.1272 23.4808 28.1792C22.6269 31.4936 22.5349 32.228 21.6548 33.7617C21.2377 34.4912 20.7656 35.1886 20.2425 35.8479C20.1834 35.9259 20.1309 36.0168 20.0127 35.9973C19.8944 35.9778 19.8747 35.8544 19.8616 35.7504C19.7116 34.7481 19.6501 33.7348 19.6777 32.7219C19.7236 31.4222 19.8879 30.9477 21.6088 23.7795C21.6293 23.6783 21.6155 23.5732 21.5694 23.4806C21.1394 22.4105 21.093 21.227 21.438 20.1272C22.2131 17.6836 25.0178 17.5276 25.5038 19.5163C25.806 20.7641 25.0112 22.3953 24.4003 24.8063C23.888 26.8015 26.2592 28.2182 28.2823 26.756C30.1542 25.4172 30.8768 22.2068 30.7388 19.9257C30.4695 15.3765 25.4381 14.4017 22.2459 15.8639C18.5807 17.5406 17.7531 22.0313 19.4018 24.0785C19.612 24.3384 19.7762 24.5009 19.7039 24.7673C19.5988 25.1768 19.5069 25.5862 19.3887 25.9956C19.3754 26.0643 19.3455 26.1287 19.3017 26.1836C19.2579 26.2384 19.2015 26.282 19.137 26.3107C19.0726 26.3394 19.0022 26.3523 18.9316 26.3484C18.8611 26.3444 18.7926 26.3237 18.7318 26.2881C18.1332 26.0453 17.6066 25.6563 17.2014 25.1573C15.7957 23.4351 15.3951 20.0362 17.2539 17.1572C19.3098 13.9663 23.1326 12.673 26.6205 13.0694C30.7914 13.5373 33.4253 16.3578 33.9245 19.5683C34.1479 21.024 33.9837 24.6114 31.9212 27.1524C29.5434 30.0704 25.6878 30.2654 23.9077 28.4522C23.775 28.3093 23.65 28.1597 23.5333 28.0038V28.0038Z" fill="#252525"/>
</svg>
