<svg width="50" height="50" viewBox="0 0 50 50" fill="none" xmlns="http://www.w3.org/2000/svg">
<circle cx="25" cy="25" r="25" fill="#8FC8F0"/>
<path fill-rule="evenodd" clip-rule="evenodd" d="M37.3804 19.0834C37.5681 18.4589 37.3804 18 36.4872 18H33.5334C32.7823 18 32.4361 18.3964 32.2483 18.8336C32.2483 18.8336 30.7462 22.4869 28.6182 24.86C27.9298 25.547 27.6168 25.7655 27.2413 25.7655C27.0535 25.7655 26.7817 25.547 26.7817 24.9225V19.0834C26.7817 18.334 26.5638 18 25.9378 18H21.2961C20.8268 18 20.5445 18.3478 20.5445 18.6775C20.5445 19.3879 21.6085 19.5517 21.7181 21.5502V25.8905C21.7181 26.8421 21.5459 27.0146 21.1704 27.0146C20.169 27.0146 17.7332 23.3449 16.2885 19.1458C16.0054 18.3297 15.7215 18 14.9666 18H12.0127C11.1688 18 11 18.3964 11 18.8336C11 19.6142 12.0014 23.4862 15.6627 28.6071C18.1036 32.1043 21.5426 34 24.6719 34C26.5495 34 26.7818 33.5789 26.7818 32.8537V30.2105C26.7818 29.3684 26.9597 29.2004 27.5542 29.2004C27.9923 29.2004 28.7434 29.4189 30.4959 31.1051C32.4986 33.1035 32.8288 34 33.9553 34H36.9091C37.7531 34 38.1751 33.5789 37.9316 32.748C37.6653 31.9199 36.709 30.7183 35.4402 29.294C34.7517 28.4822 33.7191 27.6079 33.4061 27.1707C32.968 26.6087 33.0932 26.3588 33.4061 25.8593C33.4061 25.8593 37.0049 20.8008 37.3804 19.0834Z" fill="white"/>
</svg>
