<svg width="50" height="50" viewBox="0 0 50 50" fill="none" xmlns="http://www.w3.org/2000/svg">
<circle cx="25" cy="25" r="25" fill="white"/>
<path d="M34.9306 15.4164C34.8264 15.1472 34.7223 15.0799 34.5834 15.0463C34.2016 14.9117 33.6114 15.1136 33.6114 15.1136C33.6114 15.1136 11.7069 22.7182 10.4572 23.5594C10.1795 23.7277 10.1101 23.8623 10.0407 23.9632C9.83238 24.5689 10.4919 24.8381 10.4919 24.8381L16.1503 26.6214C16.1503 26.6214 16.3586 26.6551 16.428 26.6214C17.7125 25.8475 29.3416 18.714 30.0012 18.4784C30.1053 18.4448 30.1748 18.4784 30.1748 18.5457C29.897 19.4542 19.7953 28.1693 19.7953 28.1693C19.7953 28.1693 19.7606 28.2029 19.7259 28.2702L19.2052 33.6877C19.2052 33.6877 18.9969 35.3365 20.6978 33.6877C21.9128 32.51 23.0931 31.5342 23.6485 31.0631C25.5925 32.3754 27.6754 33.7886 28.5779 34.5626C29.0292 34.9327 29.4111 35 29.7235 35C30.5913 34.9664 30.8343 34.0578 30.8343 34.0578C30.8343 34.0578 34.8264 18.4784 34.9653 16.3922C34.9653 16.1903 35 16.0557 35 15.9211C35 15.6856 34.9653 15.5173 34.9306 15.4164Z" fill="#252525"/>
</svg>
