<svg width="50" height="50" viewBox="0 0 50 50" fill="none" xmlns="http://www.w3.org/2000/svg">
<circle cx="25" cy="25" r="25" fill="white"/>
<path d="M12 37.1058L13.787 30.4239C12.3361 27.8168 11.8742 24.7739 12.4861 21.8537C13.098 18.9335 14.7427 16.3319 17.1182 14.5266C19.4937 12.7213 22.4406 11.8334 25.418 12.0258C28.3955 12.2182 31.2036 13.4781 33.3269 15.5742C35.4503 17.6702 36.7464 20.4618 36.9773 23.4365C37.2083 26.4112 36.3585 29.3694 34.5841 31.768C32.8097 34.1667 30.2297 35.8448 27.3176 36.4945C24.4056 37.1441 21.3569 36.7217 18.7313 35.3046L12 37.1058ZM19.0632 32.8042L19.487 33.0515C21.5973 34.3128 24.0964 34.7581 26.5125 34.3034C28.9287 33.8486 31.0948 32.5252 32.6022 30.583C34.1096 28.6407 34.8539 26.2139 34.6948 23.7605C34.5357 21.3071 33.4841 18.9968 31.7384 17.2655C29.9928 15.5343 27.6739 14.5018 25.2192 14.3629C22.7646 14.2241 20.344 14.9885 18.4143 16.5119C16.4845 18.0353 15.1791 20.2123 14.7444 22.6321C14.3096 25.0519 14.7755 27.5472 16.0543 29.647L16.3085 30.0778L15.3126 33.8072L19.0632 32.8042Z" fill="#252525"/>
<path fill-rule="evenodd" clip-rule="evenodd" d="M29.1636 26.193C28.9179 25.9959 28.6307 25.8572 28.3236 25.7874C28.0164 25.7177 27.6974 25.7187 27.3907 25.7904C26.9316 25.9811 26.642 26.6945 26.3454 27.0618C26.2816 27.1487 26.1884 27.2095 26.0832 27.2329C25.978 27.2563 25.8678 27.2407 25.7732 27.189C24.0924 26.5306 22.6836 25.3234 21.7755 23.7633C21.7013 23.6647 21.6667 23.5419 21.6784 23.419C21.6902 23.2961 21.7475 23.1821 21.839 23.0994C22.1716 22.7732 22.4148 22.367 22.5453 21.9198C22.5748 21.4275 22.462 20.9371 22.2204 20.5072C21.9803 19.9915 21.7119 19.2499 21.1892 18.9603C20.9395 18.8446 20.6614 18.8043 20.3891 18.8445C20.1168 18.8846 19.8622 19.0034 19.6565 19.1863C19.3036 19.49 19.0238 19.8693 18.8379 20.2961C18.652 20.723 18.5648 21.1862 18.5829 21.6514C18.5851 21.913 18.6159 22.1735 18.6747 22.4284C18.8381 23.04 19.0929 23.6233 19.4305 24.1588C19.6706 24.5685 19.932 24.9711 20.2074 25.3525C21.1272 26.6109 22.2807 27.6805 23.6048 28.5027C24.2708 28.9182 24.9817 29.257 25.7238 29.5128C26.4955 29.8618 27.3472 29.996 28.1888 29.9012C28.6689 29.8274 29.1237 29.6376 29.5138 29.3484C29.904 29.0592 30.2177 28.6792 30.4279 28.2414C30.5468 27.9757 30.5837 27.6806 30.5338 27.3938C30.4279 26.8076 29.658 26.4614 29.1636 26.193Z" fill="#252525"/>
</svg>
